<svg xmlns="http://www.w3.org/2000/svg" xmlns:xlink="http://www.w3.org/1999/xlink" width="500" zoomAndPan="magnify" viewBox="0 0 375 374.999991" height="500" preserveAspectRatio="xMidYMid meet" version="1.0"><defs><clipPath id="c2c886ade2"><path d="M 16.21875 65.15625 L 358.707031 65.15625 L 358.707031 309.652344 L 16.21875 309.652344 Z M 16.21875 65.15625 " clip-rule="nonzero"/></clipPath></defs><g clip-path="url(#c2c886ade2)"><path fill="#8c52ff" d="M 187.464844 170.503906 L 196.117188 179.160156 C 200.683594 183.726562 200.683594 191.078125 196.117188 195.644531 L 187.464844 204.300781 L 178.808594 195.644531 C 174.242188 191.078125 174.242188 183.726562 178.808594 179.160156 Z M 138.433594 65.160156 C 132.476562 65.160156 126.519531 67.4375 121.953125 72.003906 L 23.070312 170.921875 C 13.9375 180.054688 13.9375 194.75 23.070312 203.882812 L 121.953125 302.800781 C 131.082031 311.933594 145.785156 311.933594 154.917969 302.800781 L 171.398438 286.316406 L 130.199219 245.105469 L 80.761719 195.652344 L 80.585938 195.480469 L 80.59375 195.472656 C 76.195312 190.894531 76.242188 183.667969 80.75 179.160156 L 130.199219 129.703125 C 134.761719 125.136719 142.113281 125.136719 146.679688 129.703125 L 154.507812 137.53125 L 121.125 170.921875 C 111.996094 180.054688 111.996094 194.753906 121.125 203.886719 L 220.011719 302.800781 C 229.140625 311.933594 243.84375 311.933594 252.972656 302.800781 L 351.859375 203.886719 C 360.992188 194.753906 360.992188 180.054688 351.859375 170.921875 L 252.972656 72.007812 C 243.84375 62.875 229.140625 62.875 220.011719 72.007812 L 203.527344 88.492188 L 244.738281 129.703125 L 294.175781 179.152344 L 294.351562 179.328125 L 294.339844 179.335938 C 298.734375 183.914062 298.683594 191.140625 294.175781 195.648438 L 244.738281 245.105469 C 240.171875 249.671875 232.820312 249.671875 228.253906 245.105469 L 220.425781 237.277344 L 253.808594 203.886719 C 262.941406 194.753906 262.941406 180.054688 253.808594 170.921875 L 154.917969 72.007812 C 150.351562 67.4375 144.390625 65.164062 138.433594 65.164062 L 138.433594 65.160156 " fill-opacity="1" fill-rule="nonzero"/></g></svg>